<mxfile host="65bd71144e">
    <diagram name="Page-1" id="48qYUu9aeCBkf5nmRLnT">
        <mxGraphModel dx="1001" dy="791" grid="1" gridSize="10" guides="1" tooltips="1" connect="1" arrows="1" fold="1" page="1" pageScale="1" pageWidth="827" pageHeight="1169" background="#ffffff" math="0" shadow="0">
            <root>
                <mxCell id="0"/>
                <mxCell id="1" parent="0"/>
                <mxCell id="u-LkmUuJ965vq0EdiYTF-31" value="" style="strokeWidth=2;html=1;shape=mxgraph.flowchart.annotation_2;align=left;labelPosition=right;pointerEvents=1;direction=north;" parent="1" vertex="1">
                    <mxGeometry x="135" y="435" width="556" height="90" as="geometry"/>
                </mxCell>
                <mxCell id="u-LkmUuJ965vq0EdiYTF-1" value="&lt;h1&gt;&lt;font style=&quot;font-size: 24px;&quot;&gt;Customer support assistance AI project&lt;/font&gt;&lt;/h1&gt;" style="text;html=1;align=center;verticalAlign=middle;resizable=0;points=[];autosize=1;strokeColor=none;fillColor=none;" parent="1" vertex="1">
                    <mxGeometry x="174" y="24" width="480" height="70" as="geometry"/>
                </mxCell>
                <mxCell id="u-LkmUuJ965vq0EdiYTF-5" style="edgeStyle=orthogonalEdgeStyle;rounded=0;orthogonalLoop=1;jettySize=auto;html=1;entryX=0;entryY=0.5;entryDx=0;entryDy=0;" parent="1" source="u-LkmUuJ965vq0EdiYTF-2" target="u-LkmUuJ965vq0EdiYTF-4" edge="1">
                    <mxGeometry relative="1" as="geometry"/>
                </mxCell>
                <mxCell id="u-LkmUuJ965vq0EdiYTF-2" value="Customer phones&lt;br&gt;hotline" style="sketch=0;pointerEvents=1;shadow=0;dashed=0;html=1;strokeColor=none;fillColor=#000000;labelPosition=center;verticalLabelPosition=bottom;verticalAlign=top;outlineConnect=0;align=center;shape=mxgraph.office.devices.phone_traditional;" parent="1" vertex="1">
                    <mxGeometry x="106" y="150" width="60" height="50" as="geometry"/>
                </mxCell>
                <mxCell id="u-LkmUuJ965vq0EdiYTF-8" style="edgeStyle=orthogonalEdgeStyle;rounded=0;orthogonalLoop=1;jettySize=auto;html=1;entryX=0;entryY=0.5;entryDx=0;entryDy=0;" parent="1" source="u-LkmUuJ965vq0EdiYTF-4" target="u-LkmUuJ965vq0EdiYTF-7" edge="1">
                    <mxGeometry relative="1" as="geometry"/>
                </mxCell>
                <mxCell id="u-LkmUuJ965vq0EdiYTF-4" value="Customer requests&lt;br&gt;what they need" style="shape=image;html=1;verticalAlign=top;verticalLabelPosition=bottom;labelBackgroundColor=#ffffff;imageAspect=0;aspect=fixed;image=https://cdn0.iconfinder.com/data/icons/google-material-design-3-0/48/ic_record_voice_over_48px-128.png" parent="1" vertex="1">
                    <mxGeometry x="272" y="140" width="70" height="70" as="geometry"/>
                </mxCell>
                <mxCell id="u-LkmUuJ965vq0EdiYTF-11" style="edgeStyle=orthogonalEdgeStyle;rounded=0;orthogonalLoop=1;jettySize=auto;html=1;" parent="1" source="u-LkmUuJ965vq0EdiYTF-7" target="u-LkmUuJ965vq0EdiYTF-9" edge="1">
                    <mxGeometry relative="1" as="geometry"/>
                </mxCell>
                <mxCell id="u-LkmUuJ965vq0EdiYTF-15" style="edgeStyle=orthogonalEdgeStyle;rounded=0;orthogonalLoop=1;jettySize=auto;html=1;entryX=0.5;entryY=0;entryDx=0;entryDy=0;" parent="1" source="u-LkmUuJ965vq0EdiYTF-9" target="u-LkmUuJ965vq0EdiYTF-14" edge="1">
                    <mxGeometry relative="1" as="geometry"/>
                </mxCell>
                <mxCell id="u-LkmUuJ965vq0EdiYTF-9" value="Customer&lt;br&gt;support" style="sketch=0;pointerEvents=1;shadow=0;dashed=0;html=1;strokeColor=none;fillColor=#000000;labelPosition=center;verticalLabelPosition=bottom;verticalAlign=top;outlineConnect=0;align=center;shape=mxgraph.office.users.call_center_agent;fontColor=#000000;" parent="1" vertex="1">
                    <mxGeometry x="631" y="147" width="46.83" height="56" as="geometry"/>
                </mxCell>
                <mxCell id="u-LkmUuJ965vq0EdiYTF-18" style="edgeStyle=orthogonalEdgeStyle;rounded=0;orthogonalLoop=1;jettySize=auto;html=1;entryX=1;entryY=0.5;entryDx=0;entryDy=0;" parent="1" source="u-LkmUuJ965vq0EdiYTF-14" target="u-LkmUuJ965vq0EdiYTF-17" edge="1">
                    <mxGeometry relative="1" as="geometry"/>
                </mxCell>
                <mxCell id="u-LkmUuJ965vq0EdiYTF-20" style="edgeStyle=orthogonalEdgeStyle;rounded=0;orthogonalLoop=1;jettySize=auto;html=1;entryX=1;entryY=0.5;entryDx=0;entryDy=0;" parent="1" source="u-LkmUuJ965vq0EdiYTF-17" target="u-LkmUuJ965vq0EdiYTF-19" edge="1">
                    <mxGeometry relative="1" as="geometry"/>
                </mxCell>
                <mxCell id="u-LkmUuJ965vq0EdiYTF-17" value="Customer provides&lt;br&gt;their information" style="shape=image;html=1;verticalAlign=top;verticalLabelPosition=bottom;labelBackgroundColor=#ffffff;imageAspect=0;aspect=fixed;image=https://cdn0.iconfinder.com/data/icons/google-material-design-3-0/48/ic_record_voice_over_48px-128.png;direction=east;flipV=0;flipH=1;" parent="1" vertex="1">
                    <mxGeometry x="454" y="335" width="70" height="70" as="geometry"/>
                </mxCell>
                <mxCell id="u-LkmUuJ965vq0EdiYTF-22" value="AI" style="verticalLabelPosition=bottom;html=1;verticalAlign=top;align=center;strokeColor=none;fillColor=#00BEF2;shape=mxgraph.azure.automation;pointerEvents=1;" parent="1" vertex="1">
                    <mxGeometry x="94.33" y="343" width="71.67" height="64.5" as="geometry"/>
                </mxCell>
                <mxCell id="u-LkmUuJ965vq0EdiYTF-24" style="edgeStyle=orthogonalEdgeStyle;rounded=0;orthogonalLoop=1;jettySize=auto;html=1;entryX=1;entryY=0.41;entryDx=0;entryDy=0;entryPerimeter=0;" parent="1" source="u-LkmUuJ965vq0EdiYTF-19" target="u-LkmUuJ965vq0EdiYTF-22" edge="1">
                    <mxGeometry relative="1" as="geometry"/>
                </mxCell>
                <mxCell id="u-LkmUuJ965vq0EdiYTF-25" value="" style="group" parent="1" vertex="1" connectable="0">
                    <mxGeometry x="221" y="335" width="150" height="61" as="geometry"/>
                </mxCell>
                <mxCell id="u-LkmUuJ965vq0EdiYTF-19" value="Sure, my account number is&amp;nbsp;&lt;font color=&quot;#ff0000&quot;&gt;&lt;u&gt;DeltaCharlie-27-1939&lt;/u&gt;&lt;/font&gt;." style="dashed=0;strokeColor=#dddddd;shadow=1;strokeWidth=1;labelPosition=center;verticalLabelPosition=middle;align=left;verticalAlign=middle;spacingLeft=5;fontSize=12;whiteSpace=wrap;html=1;" parent="u-LkmUuJ965vq0EdiYTF-25" vertex="1">
                    <mxGeometry y="8.240000000000009" width="144" height="52.76" as="geometry"/>
                </mxCell>
                <mxCell id="u-LkmUuJ965vq0EdiYTF-21" value="" style="image;html=1;image=img/lib/clip_art/general/Gear_128x128.png" parent="u-LkmUuJ965vq0EdiYTF-25" vertex="1">
                    <mxGeometry x="130" width="20" height="20" as="geometry"/>
                </mxCell>
                <mxCell id="u-LkmUuJ965vq0EdiYTF-26" value="" style="group" parent="1" vertex="1" connectable="0">
                    <mxGeometry x="423" y="142" width="140" height="57" as="geometry"/>
                </mxCell>
                <mxCell id="u-LkmUuJ965vq0EdiYTF-7" value="I am having trouble with my &lt;font style=&quot;&quot; color=&quot;#ff0000&quot;&gt;&lt;u&gt;account&lt;/u&gt;&lt;/font&gt;." style="dashed=0;strokeColor=#dddddd;shadow=1;strokeWidth=1;labelPosition=center;verticalLabelPosition=middle;align=center;verticalAlign=middle;spacingLeft=5;fontSize=12;whiteSpace=wrap;html=1;" parent="u-LkmUuJ965vq0EdiYTF-26" vertex="1">
                    <mxGeometry x="9" y="9" width="131" height="48" as="geometry"/>
                </mxCell>
                <mxCell id="u-LkmUuJ965vq0EdiYTF-12" value="" style="image;html=1;image=img/lib/clip_art/general/Gear_128x128.png" parent="u-LkmUuJ965vq0EdiYTF-26" vertex="1">
                    <mxGeometry x="128" y="-2" width="20" height="20" as="geometry"/>
                </mxCell>
                <mxCell id="u-LkmUuJ965vq0EdiYTF-27" value="" style="group" parent="1" vertex="1" connectable="0">
                    <mxGeometry x="589" y="336" width="137" height="58" as="geometry"/>
                </mxCell>
                <mxCell id="u-LkmUuJ965vq0EdiYTF-14" value="Can you please provide me with your &lt;font color=&quot;#ff0000&quot;&gt;&lt;u&gt;account&amp;nbsp;details&lt;/u&gt;&lt;/font&gt;." style="dashed=0;strokeColor=#dddddd;shadow=1;strokeWidth=1;labelPosition=center;verticalLabelPosition=middle;align=left;verticalAlign=middle;spacingLeft=5;fontSize=12;whiteSpace=wrap;html=1;" parent="u-LkmUuJ965vq0EdiYTF-27" vertex="1">
                    <mxGeometry y="10" width="131" height="48" as="geometry"/>
                </mxCell>
                <mxCell id="u-LkmUuJ965vq0EdiYTF-16" value="" style="image;html=1;image=img/lib/clip_art/general/Gear_128x128.png" parent="u-LkmUuJ965vq0EdiYTF-27" vertex="1">
                    <mxGeometry x="117" width="20" height="20" as="geometry"/>
                </mxCell>
                <mxCell id="u-LkmUuJ965vq0EdiYTF-28" value="" style="strokeWidth=1;shadow=0;dashed=0;align=center;html=1;shape=mxgraph.mockup.containers.browserWindow;rSize=0;strokeColor=#666666;strokeColor2=#008cff;strokeColor3=#c4c4c4;mainText=,;recursiveResize=0;" parent="1" vertex="1">
                    <mxGeometry x="172" y="527" width="504" height="348.22" as="geometry"/>
                </mxCell>
                <mxCell id="u-LkmUuJ965vq0EdiYTF-29" value="Page 1" style="strokeWidth=1;shadow=0;dashed=0;align=center;html=1;shape=mxgraph.mockup.containers.anchor;fontSize=17;fontColor=#666666;align=left;whiteSpace=wrap;" parent="u-LkmUuJ965vq0EdiYTF-28" vertex="1">
                    <mxGeometry x="60" y="12" width="110" height="26" as="geometry"/>
                </mxCell>
                <mxCell id="u-LkmUuJ965vq0EdiYTF-30" value="https://www.support.io/customer-lookup" style="strokeWidth=1;shadow=0;dashed=0;align=center;html=1;shape=mxgraph.mockup.containers.anchor;rSize=0;fontSize=17;fontColor=#666666;align=left;" parent="u-LkmUuJ965vq0EdiYTF-28" vertex="1">
                    <mxGeometry x="130" y="60" width="310" height="26" as="geometry"/>
                </mxCell>
                <mxCell id="u-LkmUuJ965vq0EdiYTF-32" value="" style="strokeWidth=1;shadow=0;dashed=0;align=center;html=1;shape=mxgraph.mockup.forms.rrect;rSize=0;strokeColor=#999999;fillColor=#ffffff;" parent="1" vertex="1">
                    <mxGeometry x="215" y="661" width="420" height="157.5" as="geometry"/>
                </mxCell>
                <mxCell id="u-LkmUuJ965vq0EdiYTF-33" value="Customer look up" style="strokeWidth=1;shadow=0;dashed=0;align=center;html=1;shape=mxgraph.mockup.forms.anchor;fontSize=12;fontColor=#666666;align=left;resizeWidth=1;spacingLeft=0;" parent="u-LkmUuJ965vq0EdiYTF-32" vertex="1">
                    <mxGeometry width="210" height="20" relative="1" as="geometry">
                        <mxPoint x="10" y="10" as="offset"/>
                    </mxGeometry>
                </mxCell>
                <mxCell id="u-LkmUuJ965vq0EdiYTF-34" value="" style="shape=line;strokeColor=#ddeeff;strokeWidth=2;html=1;resizeWidth=1;" parent="u-LkmUuJ965vq0EdiYTF-32" vertex="1">
                    <mxGeometry width="378" height="10" relative="1" as="geometry">
                        <mxPoint x="10" y="30" as="offset"/>
                    </mxGeometry>
                </mxCell>
                <mxCell id="u-LkmUuJ965vq0EdiYTF-35" value="Account number" style="strokeWidth=1;shadow=0;dashed=0;align=center;html=1;shape=mxgraph.mockup.forms.anchor;fontSize=12;fontColor=#666666;align=left;resizeWidth=1;spacingLeft=0;" parent="u-LkmUuJ965vq0EdiYTF-32" vertex="1">
                    <mxGeometry width="210" height="20" relative="1" as="geometry">
                        <mxPoint x="10" y="40" as="offset"/>
                    </mxGeometry>
                </mxCell>
                <mxCell id="u-LkmUuJ965vq0EdiYTF-36" value="&lt;u style=&quot;border-color: var(--border-color); color: rgb(255, 0, 0);&quot;&gt;DeltaCharlie-27-1939&lt;/u&gt;" style="strokeWidth=1;shadow=0;dashed=0;align=center;html=1;shape=mxgraph.mockup.forms.rrect;rSize=0;strokeColor=#999999;fontColor=#666666;align=left;spacingLeft=5;resizeWidth=1;" parent="u-LkmUuJ965vq0EdiYTF-32" vertex="1">
                    <mxGeometry width="378" height="25" relative="1" as="geometry">
                        <mxPoint x="10" y="73" as="offset"/>
                    </mxGeometry>
                </mxCell>
                <mxCell id="u-LkmUuJ965vq0EdiYTF-39" value="Look up" style="strokeWidth=1;shadow=0;dashed=0;align=center;html=1;shape=mxgraph.mockup.forms.rrect;rSize=5;strokeColor=none;fontColor=#ffffff;fillColor=#66bbff;fontSize=16;fontStyle=1;" parent="u-LkmUuJ965vq0EdiYTF-32" vertex="1">
                    <mxGeometry y="1" width="80" height="30" relative="1" as="geometry">
                        <mxPoint x="305" y="-47" as="offset"/>
                    </mxGeometry>
                </mxCell>
                <mxCell id="u-LkmUuJ965vq0EdiYTF-45" value="" style="shadow=0;dashed=0;html=1;strokeColor=none;fillColor=#4495D1;labelPosition=center;verticalLabelPosition=bottom;verticalAlign=top;align=center;outlineConnect=0;shape=mxgraph.veeam.magnifying_glass;pointerEvents=1;" parent="u-LkmUuJ965vq0EdiYTF-32" vertex="1">
                    <mxGeometry x="115" y="11" width="19.28" height="19" as="geometry"/>
                </mxCell>
                <mxCell id="u-LkmUuJ965vq0EdiYTF-46" value="" style="image;html=1;image=img/lib/clip_art/general/Gear_128x128.png" parent="u-LkmUuJ965vq0EdiYTF-32" vertex="1">
                    <mxGeometry x="376" y="61" width="20" height="20" as="geometry"/>
                </mxCell>
            </root>
        </mxGraphModel>
    </diagram>
</mxfile>